<?xml version="1.0" encoding="UTF-8"?>
<svg version="1.1" xmlns="http://www.w3.org/2000/svg" width="1280" height="720">
<path d="M0 0 C422.4 0 844.8 0 1280 0 C1280 237.6 1280 475.2 1280 720 C857.6 720 435.2 720 0 720 C0 482.4 0 244.8 0 0 Z " fill="#000000" transform="translate(0,0)"/>
<path d="M0 0 C75.57 0 151.14 0 229 0 C229 237.6 229 475.2 229 720 C78.52 720 -71.96 720 -227 720 C-224.11531833 718.07687889 -221.67480895 717.11508696 -218.4375 715.9375 C-207.89773098 711.57885308 -200.93213658 704.17354905 -196 694 C-195.49146484 692.99259766 -195.49146484 692.99259766 -194.97265625 691.96484375 C-191.30152081 683.18457051 -191.5897108 671.12749461 -194.5 662.125 C-200.84743829 647.49248436 -210.8290895 640.9862164 -225 635 C-222.67140603 632.67140603 -220.55737911 631.80447343 -217.5625 630.4375 C-201.94124821 622.68293123 -191.72020714 609.93649121 -185 594 C-180.19486485 577.93961249 -184.19419161 559.96756598 -191.7043457 545.59887695 C-198.30663302 533.60261762 -207.16138704 524.27494629 -218 516 C-219.10711663 515.13100158 -220.21252071 514.25981794 -221.31640625 513.38671875 C-224.27090333 511.05086636 -227.23471183 508.72723425 -230.20166016 506.40722656 C-232.55649864 504.56453188 -234.90759824 502.71710695 -237.25830078 500.86914062 C-238.41655883 499.95864004 -239.57508623 499.048482 -240.73388672 498.13867188 C-243.74178825 495.7769497 -246.74636455 493.41115844 -249.74609375 491.0390625 C-250.67325195 490.30719727 -250.67325195 490.30719727 -251.61914062 489.56054688 C-252.78684125 488.63867796 -253.95359156 487.71560333 -255.11914062 486.79101562 C-258.9950973 483.73398857 -262.9661039 480.84565616 -267 478 C-266.29824747 473.64600383 -264.84938634 469.68681465 -263.25390625 465.59765625 C-262.97164185 464.8649501 -262.68937744 464.13224396 -262.39855957 463.37733459 C-261.45726172 460.93746758 -260.50998049 458.49997211 -259.5625 456.0625 C-258.89029982 454.32480132 -258.2183489 452.5870062 -257.54663086 450.84912109 C-250.53202709 432.72141727 -243.43632253 414.62514244 -236.34159851 396.52868652 C-232.50939243 386.752193 -228.69092842 376.97035621 -224.875 367.1875 C-224.21623266 365.49885855 -223.55745988 363.81021923 -222.89868164 362.12158203 C-221.58829218 358.76256638 -220.27800584 355.40351051 -218.96777344 352.04443359 C-215.98010096 344.3851109 -212.99099243 336.72634859 -210.00201416 329.0675354 C-208.33461937 324.79504574 -206.66731415 320.52252113 -205 316.25 C-204.33333376 314.5416665 -203.6666671 312.83333317 -203 311.125 C-202.67 310.279375 -202.34 309.43375 -202 308.5625 C-135 136.875 -135 136.875 -134.00012207 134.31309509 C-133.33279361 132.60287755 -132.66572047 130.89256037 -131.99890137 129.18214417 C-130.34442792 124.93928949 -128.68570992 120.69819835 -127.01757812 116.46069336 C-123.86495122 108.43858812 -120.76143662 100.40516895 -117.7956543 92.3117981 C-116.38816177 88.47856672 -114.9577315 84.65408279 -113.52539062 80.83007812 C-112.84716705 78.9995204 -112.18028924 77.16471502 -111.52539062 75.32568359 C-110.61801546 72.77988822 -109.67300557 70.25118052 -108.71875 67.72265625 C-108.46089722 66.96642471 -108.20304443 66.21019318 -107.93737793 65.43104553 C-107.12304688 63.34008789 -107.12304688 63.34008789 -105 60 C-99.26050511 58.20261171 -93.35366994 57.31237986 -87.42211914 56.36767578 C-86.49906479 56.21775177 -85.57601044 56.06782776 -84.62498474 55.9133606 C-82.63368853 55.59010884 -80.64216499 55.26825488 -78.65043831 54.94766617 C-75.49192724 54.43834162 -72.33439847 53.92330245 -69.17710876 53.40646362 C-60.20456506 51.937912 -51.23143212 50.47323625 -42.25512695 49.02783203 C-36.75227452 48.14131383 -31.25149627 47.24278878 -25.75185966 46.33654404 C-23.66392595 45.99482314 -21.57525895 45.65755027 -19.48585701 45.32492447 C-16.55768624 44.85831012 -13.63240099 44.37640181 -10.70727539 43.89111328 C-9.85453033 43.75902466 -9.00178528 43.62693604 -8.12319946 43.49084473 C-2.93935907 42.6110152 1.44941112 41.1197375 6.1772089 38.80851555 C8 38 8 38 10 38 C10.28617188 37.41605469 10.57234375 36.83210938 10.8671875 36.23046875 C11.56371991 34.85902045 12.29190963 33.50247519 13.0703125 32.17578125 C15.95105919 27.0864621 16.98802809 22.81612411 16 17 C14.07532409 10.77042767 10.34049583 6.62390788 5 3 C2.25452126 1.62949404 2.25452126 1.62949404 0 1 C0 0.67 0 0.34 0 0 Z " fill="#000000" transform="translate(1051,0)"/>
<path d="M0 0 C4.74121677 3.52400998 9.59284698 8.508039 10.88671875 14.40234375 C11.692095 21.02432628 10.58706329 25.85182694 6.88671875 31.40234375 C0.16980317 39.8464662 -9.99969855 41.23187618 -20.10546875 42.76953125 C-21.35339706 42.96983444 -22.60132538 43.17013763 -23.8870697 43.37651062 C-26.54710994 43.80195909 -29.20737298 44.22303768 -31.86929321 44.63626099 C-36.01203525 45.2793743 -40.15209353 45.9386568 -44.29174805 46.60131836 C-48.41138837 47.26025501 -52.53109432 47.91869424 -56.65171814 48.57145691 C-68.13049018 50.39121762 -79.58628174 52.32862639 -91.03387451 54.33416748 C-97.71583612 55.50422028 -104.37024705 56.6493575 -111.11328125 57.40234375 C-111.31214684 58.50570824 -111.31214684 58.50570824 -111.51502991 59.63136292 C-112.05686065 62.14101477 -112.75468674 64.35162548 -113.68530273 66.73803711 C-114.00823303 67.57201523 -114.33116333 68.40599335 -114.66387939 69.26524353 C-115.01714294 70.16513504 -115.37040649 71.06502655 -115.734375 71.9921875 C-116.29121979 73.42486717 -116.29121979 73.42486717 -116.85931396 74.88648987 C-118.08585811 78.03916037 -119.31827127 81.18950127 -120.55078125 84.33984375 C-121.4128435 86.55195584 -122.27457389 88.76419728 -123.13598633 90.9765625 C-125.35853233 96.68122335 -127.58626446 102.38384159 -129.81616211 108.08563232 C-131.0505427 111.24192234 -132.28419273 114.39849676 -133.51757812 117.55517578 C-137.26511268 127.14528711 -141.01741852 136.7335212 -144.7734375 146.3203125 C-148.93730897 156.94834498 -153.0899012 167.5807563 -157.23828125 178.21484375 C-157.56500824 179.05233154 -157.89173523 179.88981934 -158.22836304 180.75268555 C-159.86753957 184.95437705 -161.50656878 189.156126 -163.14550781 193.35791016 C-166.13318029 201.01723285 -169.12228882 208.67599516 -172.11126709 216.33480835 C-173.77866188 220.60729801 -175.4459671 224.87982262 -177.11328125 229.15234375 C-177.77994749 230.86067725 -178.44661415 232.56901058 -179.11328125 234.27734375 C-179.44328125 235.12296875 -179.77328125 235.96859375 -180.11328125 236.83984375 C-197.11328125 280.40234375 -214.11328125 323.96484375 -231.11328125 367.52734375 C-231.44326111 368.3729184 -231.77324097 369.21849304 -232.11322021 370.08969116 C-232.78008689 371.79853447 -233.44695701 373.50737643 -234.11383057 375.21621704 C-235.77746537 379.47923682 -237.44104085 383.74227972 -239.10449219 388.00537109 C-242.14052667 395.78594192 -245.17704822 403.56632119 -248.21569824 411.34587097 C-256.55035931 432.68439175 -264.86078517 454.03189666 -273.11328125 475.40234375 C-272.20811768 475.8355896 -272.20811768 475.8355896 -271.28466797 476.27758789 C-268.32573584 477.81028413 -265.8661831 479.79191525 -263.23828125 481.83984375 C-262.67165771 482.28013916 -262.10503418 482.72043457 -261.52124023 483.17407227 C-259.71538692 484.57945091 -257.91385311 485.99020659 -256.11328125 487.40234375 C-255.53690918 487.85351562 -254.96053711 488.3046875 -254.36669922 488.76953125 C-250.87021577 491.50737175 -247.38041643 494.25360089 -243.89257812 497.00244141 C-242.09885028 498.41369764 -240.30189004 499.82073355 -238.50390625 501.2265625 C-231.29886492 506.8631195 -224.15427941 512.56100611 -217.11328125 518.40234375 C-216.406875 518.96050781 -215.70046875 519.51867187 -214.97265625 520.09375 C-206.49780367 527.01710398 -200.63706835 535.85910669 -195.73828125 545.52734375 C-195.41666016 546.15954834 -195.09503906 546.79175293 -194.76367188 547.44311523 C-190.287385 556.67131658 -188.60428919 565.15948062 -188.67578125 575.40234375 C-188.65580078 576.418125 -188.63582031 577.43390625 -188.61523438 578.48046875 C-188.62464803 593.16577268 -196.62945257 606.51277946 -206.5234375 617.015625 C-213.47493585 623.42190779 -221.50402611 628.51973849 -230.11328125 632.40234375 C-229.46101563 632.6446875 -228.80875 632.88703125 -228.13671875 633.13671875 C-223.0234803 635.09754765 -218.53822319 637.1093637 -214.11328125 640.40234375 C-213.30890625 640.93859375 -212.50453125 641.47484375 -211.67578125 642.02734375 C-203.85622971 649.27473299 -198.4478837 658.84695398 -197.76953125 669.5625 C-197.50932262 677.15791455 -197.61161899 684.50472978 -201.11328125 691.40234375 C-201.52707031 692.21960938 -201.94085937 693.036875 -202.3671875 693.87890625 C-209.32852748 706.43587374 -219.35065822 713.45574568 -233.11328125 717.40234375 C-236.57092732 717.65534341 -236.57092732 717.65534341 -240.4582243 717.65961266 C-241.17941062 717.66311873 -241.90059694 717.6666248 -242.64363739 717.67023712 C-245.06097922 717.67954327 -247.47807972 717.67462987 -249.89543152 717.66976929 C-251.64581238 717.67350595 -253.39619157 717.67810754 -255.14656812 717.68349993 C-259.95746326 717.69574351 -264.76828893 717.69546786 -269.5791961 717.69311118 C-274.76749948 717.69270335 -279.9557805 717.70373896 -285.14407349 717.71322632 C-295.30975057 717.72984515 -305.47540446 717.73533628 -315.64109399 717.73645107 C-323.90459064 717.73740121 -332.16807964 717.74150976 -340.43157387 717.74785233 C-363.85885614 717.76546777 -387.28612008 717.77469082 -410.71340903 717.77319138 C-411.97659977 717.77311147 -413.23979052 717.77303155 -414.54125977 717.77294922 C-415.80599262 717.77286746 -417.07072547 717.7727857 -418.37378357 717.77270146 C-438.86812462 717.77188865 -459.36239216 717.79102418 -479.85671195 717.81922595 C-500.89892117 717.84795319 -521.94109454 717.86176631 -542.98332387 717.8600384 C-554.79737248 717.8593744 -566.61134404 717.86487081 -578.42537498 717.8863945 C-588.48495305 717.90460424 -598.54441914 717.90895535 -608.60400655 717.89537565 C-613.73548959 717.88884478 -618.86675782 717.88873322 -623.99822044 717.90608215 C-628.69937916 717.92181261 -633.40015274 717.91894938 -638.10130206 717.90151389 C-639.79848254 717.89844393 -641.49569176 717.90207621 -643.19283833 717.91323404 C-657.66275104 718.00203575 -669.24764864 715.45312043 -680.23828125 705.47265625 C-689.50851732 695.88638941 -693.57589285 684.38231582 -693.453125 671.2734375 C-692.50728999 660.49961576 -687.90404986 650.21451763 -679.6111908 643.11671448 C-678.11188761 641.8785909 -676.61258443 640.64046733 -675.11328125 639.40234375 C-676.13164063 639.39299805 -677.15 639.38365234 -678.19921875 639.37402344 C-682.00905705 639.33388756 -685.8181077 639.26806612 -689.62744141 639.19482422 C-691.27024144 639.16675044 -692.91317314 639.1454688 -694.55615234 639.13134766 C-696.93004098 639.10972754 -699.30236917 639.06298615 -701.67578125 639.01171875 C-702.76221924 639.00987579 -702.76221924 639.00987579 -703.87060547 639.00799561 C-710.31709095 638.8264332 -715.49459441 636.69711637 -720.35546875 632.4375 C-725.16686962 626.62468316 -727.64755324 622.42545549 -727.41796875 614.734375 C-726.49409793 607.66320989 -722.46659173 603.34056146 -717.2109375 598.84765625 C-712.82545746 595.82600333 -709.04245505 595.15065003 -703.7649231 595.13059998 C-702.47272732 595.1208848 -701.18053154 595.11116962 -699.84917831 595.10116005 C-698.41393797 595.10038916 -696.97869752 595.09979752 -695.54345703 595.09936523 C-694.01324142 595.09165567 -692.48302998 595.08307661 -690.95282364 595.07370567 C-686.72226594 595.05034627 -682.4917516 595.0394154 -678.26114225 595.03043199 C-673.64595699 595.01848739 -669.03082688 594.99518735 -664.41567993 594.97331238 C-656.31534341 594.93645928 -648.21500525 594.90693781 -640.11462402 594.88189697 C-628.23991905 594.8450218 -616.36530034 594.79436579 -604.49065971 594.74096775 C-559.02324533 594.53782272 -513.5556756 594.40010252 -468.08794975 594.29258823 C-465.06313957 594.2854278 -462.03832941 594.27825619 -459.01351929 594.27107239 C-457.88654982 594.26839765 -457.88654982 594.26839765 -456.73681329 594.26566888 C-445.3796796 594.23861945 -434.02255619 594.20869654 -422.66543579 594.17655945 C-421.9198276 594.17445552 -421.1742194 594.1723516 -420.40601702 594.17018392 C-413.64803545 594.15110022 -406.89005425 594.13189185 -400.13207459 594.11213768 C-383.01381231 594.06213036 -365.89558662 594.01990317 -348.77726762 593.99532352 C-336.72617256 593.97788732 -324.67513771 593.95013379 -312.62408984 593.91206902 C-306.03203378 593.89159023 -299.44004125 593.87655622 -292.84794998 593.87431908 C-286.76890405 593.87218937 -280.69005151 593.85636894 -274.61106467 593.82981026 C-272.40369157 593.82261268 -270.19629504 593.82046868 -267.98891282 593.82386768 C-264.98169928 593.82777371 -261.97510067 593.81329152 -258.96795654 593.79434204 C-258.10885134 593.79987191 -257.24974614 593.80540179 -256.36460745 593.81109923 C-249.04844784 593.73164234 -241.90100932 592.66737281 -236.11328125 587.96484375 C-231.87835385 582.53884302 -231.33505945 578.17287337 -232.11328125 571.40234375 C-235.52490863 558.53120409 -244.01195557 551.52136023 -254.234375 543.82568359 C-257.22647151 541.55906163 -260.16776406 539.22895365 -263.11328125 536.90234375 C-264.27968784 535.98534617 -265.44635506 535.06868002 -266.61328125 534.15234375 C-268.94661458 532.31901042 -271.27994792 530.48567708 -273.61328125 528.65234375 C-274.19070068 528.19867432 -274.76812012 527.74500488 -275.36303711 527.27758789 C-276.53058535 526.36019366 -277.69806574 525.44271308 -278.86547852 524.52514648 C-281.76810915 522.2439013 -284.67187399 519.96413161 -287.578125 517.6875 C-294.34961973 512.37982909 -301.09297247 507.03994308 -307.78881836 501.63696289 C-308.9278439 500.72114514 -310.07427875 499.81443953 -311.22912598 498.9186554 C-313.11328125 497.40234375 -313.11328125 497.40234375 -314.71412659 495.86965942 C-320.88237633 490.38430273 -327.32959403 490.24543482 -335.2734375 489.8203125 C-336.72571346 489.72183788 -338.17781454 489.62075592 -339.62974548 489.51731873 C-342.79282136 489.29675802 -345.9563833 489.09264615 -349.12133789 488.90093994 C-354.30624677 488.58591209 -359.48806392 488.23202276 -364.66992188 487.87060547 C-365.57008718 487.8079248 -366.47025249 487.74524414 -367.39769554 487.68066406 C-369.25861956 487.5510781 -371.11953752 487.4214051 -372.98044968 487.29164886 C-375.88048437 487.09066269 -378.78074013 486.89316357 -381.68106079 486.6963501 C-403.50110874 485.2084778 -425.2944829 483.40450121 -447.09072876 481.60601807 C-458.93343346 480.62920152 -470.77721286 479.66555968 -482.62109375 478.703125 C-483.80345171 478.60698662 -484.98580967 478.51084824 -486.20399666 478.41179657 C-511.37831802 476.36639796 -536.55910897 474.40750052 -561.74157333 472.46533203 C-591.67936744 470.15558727 -621.61693808 467.84302587 -651.54522705 465.41268921 C-654.66789506 465.15916686 -657.7907304 464.90790522 -660.91375732 464.65884399 C-664.4863629 464.3737572 -668.058524 464.08364414 -671.63039207 463.78946495 C-673.50416999 463.63623189 -675.37833649 463.48777283 -677.2525177 463.33955383 C-700.53067654 461.39735261 -700.53067654 461.39735261 -707.11328125 454.40234375 C-708.74387239 452.11571303 -709.88695442 449.95310355 -711.11328125 447.40234375 C-711.44328125 446.74234375 -711.77328125 446.08234375 -712.11328125 445.40234375 C-712.37714731 443.85189638 -712.59524655 442.29354087 -712.79003906 440.73291016 C-712.91416672 439.7521904 -713.03829437 438.77147064 -713.16618347 437.7610321 C-713.29825699 436.68618057 -713.43033051 435.61132904 -713.56640625 434.50390625 C-713.70673782 433.38365555 -713.8470694 432.26340485 -713.99165344 431.10920715 C-714.45286757 427.41573876 -714.90827482 423.72158164 -715.36328125 420.02734375 C-715.68215404 417.45970981 -716.00108355 414.89208292 -716.32006836 412.32446289 C-718.30453312 396.28726031 -720.18531215 380.24084024 -721.97155762 364.18048096 C-723.6540936 349.07534644 -725.54349115 334.00263821 -727.49880981 318.93060303 C-729.44626732 303.89693017 -731.23904021 288.8524859 -732.91049194 273.78573608 C-734.11414953 262.94416815 -735.38181114 252.11415121 -736.7578125 241.29296875 C-736.8967392 240.19830795 -737.03566589 239.10364716 -737.17880249 237.97581482 C-737.85548512 232.65664563 -738.53986081 227.33859801 -739.234375 222.02172852 C-739.48190782 220.09262825 -739.72931027 218.16351125 -739.9765625 216.234375 C-740.09191849 215.37068298 -740.20727448 214.50699097 -740.3261261 213.61712646 C-742.46544442 196.77843417 -742.46544442 196.77843417 -737.11328125 189.40234375 C-731.938004 183.69943519 -727.05921562 180.80882418 -719.33339691 180.17387962 C-715.85514902 180.03076088 -712.38006103 179.94977771 -708.89941406 179.88745117 C-707.54542764 179.85654636 -706.19145979 179.82481886 -704.83751011 179.79234409 C-701.89487989 179.72356774 -698.95220187 179.6606731 -696.00934792 179.60225677 C-691.20211718 179.50680008 -686.39522548 179.39837291 -681.58830261 179.28863525 C-674.56141198 179.1295457 -667.53440896 178.97667265 -660.5072937 178.82785034 C-649.22606952 178.58865965 -637.94516638 178.33606547 -626.66430664 178.08032227 C-625.70540516 178.05859416 -624.74650367 178.03686605 -623.75854456 178.01447952 C-619.83124997 177.92546377 -615.9039566 177.83639507 -611.97666699 177.74716014 C-605.92185763 177.60960324 -599.86702895 177.4729372 -593.81218559 177.33688587 C-549.84316434 176.34815342 -505.87784257 175.22358222 -461.91255105 174.08251143 C-451.52812103 173.81309107 -441.14363823 173.54573293 -430.75914931 173.27859402 C-399.21947217 172.46718083 -367.67983827 171.65412032 -336.14055312 170.82759464 C-324.02225234 170.51003753 -311.90387418 170.19561929 -299.78540325 169.88462162 C-293.58064459 169.72522332 -287.37594186 169.56416971 -281.1713562 169.39816284 C-253.81152267 168.66680944 -226.48345326 168.21698829 -199.11328125 168.40234375 C-198.94221863 167.79770798 -198.77115601 167.1930722 -198.59490967 166.57011414 C-196.78245217 160.32891141 -194.62000146 154.32197552 -192.19140625 148.296875 C-191.81484894 147.3520224 -191.43829163 146.4071698 -191.05032349 145.4336853 C-190.24383769 143.41069596 -189.4355736 141.38841478 -188.62567139 139.36679077 C-186.46354828 133.9683824 -184.31575806 128.56428018 -182.16796875 123.16015625 C-181.73525665 122.07198105 -181.30254456 120.98380585 -180.85671997 119.86265564 C-177.30104562 110.90716798 -173.82115045 101.92430183 -170.38095093 92.92391968 C-168.58796926 88.23578537 -166.78494395 83.55150313 -164.98292542 78.86683655 C-163.29001048 74.46543649 -161.6002964 70.06284291 -159.91455078 65.65869141 C-158.01385708 60.69783716 -156.09716878 55.74338818 -154.17095947 50.79238892 C-153.43273052 48.88776786 -152.69949151 46.98120407 -151.97161865 45.07260132 C-150.9579086 42.41673046 -149.92640205 39.76842256 -148.890625 37.12109375 C-148.5974086 36.34059158 -148.3041922 35.56008942 -148.00209045 34.75593567 C-145.02223116 27.24677656 -140.92718965 21.53888458 -133.39501953 18.18981934 C-128.88189681 16.63224633 -124.2514144 15.87629645 -119.55078125 15.10546875 C-118.42603897 14.91067932 -117.30129669 14.71588989 -116.14247131 14.51519775 C-112.46804397 13.88205347 -108.79083409 13.26704912 -105.11328125 12.65234375 C-102.56289158 12.21653566 -100.01268151 11.77967534 -97.46264648 11.34179688 C-89.6825479 10.01045096 -81.89840065 8.70396189 -74.11328125 7.40234375 C-71.70849217 6.99937237 -69.3037069 6.59637825 -66.89892578 6.19335938 C-58.32411551 4.7579909 -49.74920624 3.32345684 -41.16992188 1.91503906 C-40.22442978 1.75936462 -39.27893768 1.60369019 -38.30479431 1.44329834 C-36.57307821 1.1584612 -34.84113687 0.87498766 -33.10890198 0.59332275 C-28.13157202 -0.22596591 -23.18918173 -1.16178999 -18.24928284 -2.18338013 C-11.74104638 -3.44564837 -5.84009022 -3.32873297 0 0 Z " fill="#FC7D00" transform="translate(1057.11328125,2.59765625)"/>
<path d="M0 0 C119.46 0 238.92 0 362 0 C360.35 1.65 358.7 3.3 357 5 C347.31985073 14.7168165 342.73027835 24.44555818 342.75341797 38.14916992 C342.95402783 49.55507718 347.47123562 59.17010999 355 67.6875 C359.26723284 71.74329337 364.61132192 74.06189964 369.890625 76.51953125 C373 78 373 78 376 80 C246.64 80 117.28 80 -16 80 C-13.33135405 78.2209027 -11.15995289 77.22996713 -8.1875 76.125 C2.30753472 71.99105464 9.95524722 64.52946286 15.26953125 54.63671875 C19.5434488 44.68438071 19.83372013 31.55577101 16.1015625 21.3359375 C12.52498526 13.75156449 8.6473358 7.68909329 1.50390625 3.12109375 C1.00761719 2.75113281 0.51132812 2.38117187 0 2 C0 1.34 0 0.68 0 0 Z " fill="#000000" transform="translate(431,640)"/>
<path d="M0 0 C5.94 0.020625 11.88 0.04125 18 0.0625 C18 24.4825 18 48.9025 18 74.0625 C-5.76 74.0625 -29.52 74.0625 -54 74.0625 C-54 49.9725 -54 25.8825 -54 1.0625 C-17.20987654 -0.08719136 -17.20987654 -0.08719136 0 0 Z " fill="#000000" transform="translate(740,205.9375)"/>
<path d="M0 0 C5.94 0.020625 11.88 0.04125 18 0.0625 C18 23.8225 18 47.5825 18 72.0625 C-5.76 72.0625 -29.52 72.0625 -54 72.0625 C-54 48.6325 -54 25.2025 -54 1.0625 C-17.20987654 -0.08719136 -17.20987654 -0.08719136 0 0 Z " fill="#000000" transform="translate(653,207.9375)"/>
<path d="M0 0 C23.76 0 47.52 0 72 0 C73.08208916 28.31466624 73.16668286 48.09256196 60 73 C59.67 73.66 59.34 74.32 59 75 C43.91065482 74.06434327 28.82290327 73.11277073 13.75 71.9375 C12.70465088 71.85838379 11.65930176 71.77926758 10.58227539 71.69775391 C9.1416272 71.58246338 9.1416272 71.58246338 7.671875 71.46484375 C6.8375293 71.399021 6.00318359 71.33319824 5.14355469 71.26538086 C3 71 3 71 0 70 C0 46.9 0 23.8 0 0 Z " fill="#010000" transform="translate(686,378)"/>
<path d="M0 0 C0 23.1 0 46.2 0 70 C-23.76 70 -47.52 70 -72 70 C-72 47.23 -72 24.46 -72 1 C-65.68875 0.835 -59.3775 0.67 -52.875 0.5 C-50.9554248 0.44779297 -49.03584961 0.39558594 -47.05810547 0.34179688 C-31.3557924 -0.04924798 -15.7254731 0 0 0 Z " fill="#000000" transform="translate(584,210)"/>
<path d="M0 0 C23.76 0 47.52 0 72 0 C72 22.44 72 44.88 72 68 C48.24 68 24.48 68 0 68 C0 45.56 0 23.12 0 0 Z " fill="#010000" transform="translate(686,295)"/>
<path d="M0 0 C23.76 0 47.52 0 72 0 C72 22.44 72 44.88 72 68 C48.24 68 24.48 68 0 68 C0 45.56 0 23.12 0 0 Z " fill="#000000" transform="translate(599,295)"/>
<path d="M0 0 C23.76 0 47.52 0 72 0 C72 22.44 72 44.88 72 68 C48.24 68 24.48 68 0 68 C0 45.56 0 23.12 0 0 Z " fill="#000000" transform="translate(512,295)"/>
<path d="M0 0 C23.76 0 47.52 0 72 0 C72 22.44 72 44.88 72 68 C48.24 68 24.48 68 0 68 C0 45.56 0 23.12 0 0 Z " fill="#010000" transform="translate(425,295)"/>
<path d="M0 0 C0 22.44 0 44.88 0 68 C-23.76 68 -47.52 68 -72 68 C-72 46.22 -72 24.44 -72 2 C-53.96825397 0.87301587 -53.96825397 0.87301587 -47.265625 0.68359375 C-46.53664001 0.66281265 -45.80765503 0.64203156 -45.05657959 0.62062073 C-43.54133794 0.57815937 -42.02605791 0.53704489 -40.51074219 0.49731445 C-38.26483759 0.43789257 -36.01915967 0.37256154 -33.7734375 0.30664062 C-22.5030988 -0.0009986 -11.28497869 0 0 0 Z " fill="#000000" transform="translate(497,212)"/>
<path d="M0 0 C23.76 0 47.52 0 72 0 C72 22.77 72 45.54 72 69 C46.71128731 67.85051306 46.71128731 67.85051306 36.9140625 67.02734375 C35.95330811 66.94971802 34.99255371 66.87209229 34.00268555 66.79211426 C30.54311025 66.51148564 27.084081 66.22415714 23.625 65.9375 C11.930625 64.9784375 11.930625 64.9784375 0 64 C0 42.88 0 21.76 0 0 Z " fill="#000000" transform="translate(599,378)"/>
<path d="M0 0 C23.76 0 47.52 0 72 0 C72 20.46 72 40.92 72 62 C46.71128731 60.85051306 46.71128731 60.85051306 36.9140625 60.02734375 C35.95330811 59.94971802 34.99255371 59.87209229 34.00268555 59.79211426 C30.54311025 59.51148564 27.084081 59.22415714 23.625 58.9375 C11.930625 57.9784375 11.930625 57.9784375 0 57 C0 38.19 0 19.38 0 0 Z " fill="#000000" transform="translate(512,378)"/>
<path d="M0 0 C1.01208527 0.00141495 2.02417053 0.0028299 3.06692505 0.00428772 C6.19308888 0.00973453 9.31917161 0.0222524 12.4453125 0.03515625 C14.60937394 0.04019122 16.77343654 0.04475053 18.9375 0.04882812 C24.14846713 0.05965279 29.35937626 0.07680224 34.5703125 0.09765625 C30.70651819 11.32182647 26.56294095 22.40207225 22.16189575 33.4262085 C20.51123987 37.5613691 18.87109989 41.70069779 17.23046875 45.83984375 C16.91148117 46.6440274 16.59249359 47.44821106 16.26383972 48.27676392 C12.60419255 57.51498417 9.07502229 66.7994466 5.5703125 76.09765625 C-7.6296875 76.09765625 -20.8296875 76.09765625 -34.4296875 76.09765625 C-34.4296875 51.34765625 -34.4296875 26.59765625 -34.4296875 1.09765625 C-9.14570384 -0.05161573 -9.14570384 -0.05161573 0 0 Z " fill="#010000" transform="translate(807.4296875,203.90234375)"/>
<path d="M0 0 C23.76 0 47.52 0 72 0 C72 18.15 72 36.3 72 55 C60.75 55 60.75 55 55.17333984 54.54101562 C53.93280853 54.44091187 52.69227722 54.34080811 51.41415405 54.2376709 C50.10959259 54.128302 48.80503113 54.01893311 47.4609375 53.90625 C46.08520335 53.79379601 44.70943981 53.68170107 43.33364868 53.56994629 C39.74630232 53.27759327 36.15937111 52.98042674 32.57250977 52.68218994 C28.89884266 52.37761555 25.22479994 52.07764221 21.55078125 51.77734375 C14.36676684 51.1898186 7.18343637 50.59472566 0 50 C0 33.5 0 17 0 0 Z " fill="#010000" transform="translate(425,378)"/>
<path d="M0 0 C0 21.78 0 43.56 0 66 C-17.49 66 -34.98 66 -53 66 C-56.45212026 46.43798521 -56.45212026 46.43798521 -57.38671875 37.85546875 C-57.49345413 36.91238358 -57.60018951 35.9692984 -57.7101593 34.99763489 C-57.9301364 33.04484739 -58.14761354 31.0917766 -58.36254883 29.13842773 C-58.69211138 26.14562344 -59.030027 23.15384515 -59.36914062 20.16210938 C-59.58381013 18.24744923 -59.79802044 16.33273753 -60.01171875 14.41796875 C-60.11167648 13.52949753 -60.21163422 12.64102631 -60.31462097 11.72563171 C-60.40504166 10.89989151 -60.49546234 10.07415131 -60.58862305 9.22338867 C-60.6683989 8.50189133 -60.74817474 7.78039398 -60.83036804 7.03703308 C-60.99743195 5.0308385 -61 3.01313861 -61 1 C-54.56287266 0.85540553 -48.12569409 0.71327529 -41.68847656 0.57275391 C-39.50454514 0.52480139 -37.32062545 0.47631155 -35.13671875 0.42724609 C-31.97398866 0.35628741 -28.81121962 0.28734578 -25.6484375 0.21875 C-24.21472305 0.18593933 -24.21472305 0.18593933 -22.75204468 0.15246582 C-15.16253347 -0.00919481 -7.59671319 0 0 0 Z " fill="#020100" transform="translate(410,214)"/>
<path d="M0 0 C16.83 0 33.66 0 51 0 C51 22.44 51 44.88 51 68 C40.3884375 68.0309375 40.3884375 68.0309375 29.5625 68.0625 C26.20880249 68.07615601 26.20880249 68.07615601 22.78735352 68.09008789 C21.02620504 68.09300696 19.26505589 68.09555554 17.50390625 68.09765625 C16.58057495 68.10277222 15.65724365 68.10788818 14.70593262 68.11315918 C13.83303589 68.11328003 12.96013916 68.11340088 12.06079102 68.11352539 C11.29912125 68.115746 10.53745148 68.11796661 9.75270081 68.12025452 C8 68 8 68 7 67 C6.73628579 65.4820281 6.5314989 63.95374958 6.3515625 62.42358398 C6.17633057 60.96087318 6.17633057 60.96087318 5.99755859 59.46861267 C5.87461426 58.40518143 5.75166992 57.34175018 5.625 56.24609375 C5.49561035 55.15667984 5.3662207 54.06726593 5.23291016 52.94483948 C4.81788099 49.44285878 4.40883726 45.94020845 4 42.4375 C3.72435946 40.1008641 3.44832278 37.7642749 3.171875 35.42773438 C2.54851411 30.15701223 1.927533 24.88602583 1.31542969 19.61398315 C1.12210179 18.01186424 0.91715635 16.41102929 0.69238281 14.8130188 C-0.02273238 9.72370393 0 5.28596313 0 0 Z " fill="#030100" transform="translate(359,295)"/>
<path d="M0 0 C7.06609703 4.57937442 10.88460137 10.18173774 13.03125 18.31640625 C14.42673471 25.20888726 12.14596109 30.50733839 8.87890625 36.5703125 C5.1898802 42.05315671 0.26315955 45.26942866 -5.96875 47.31640625 C-13.61468463 48.1936572 -20.51287788 48.19411927 -27.0703125 43.8671875 C-33.03299243 38.99643867 -37.32092024 33.39827079 -38.3203125 25.55859375 C-38.72390213 17.25314408 -36.91140493 10.74603993 -31.32421875 4.46875 C-22.55598473 -3.5869413 -10.70370315 -5.56515001 0 0 Z " fill="#050200" transform="translate(419.96875,654.68359375)"/>
<path d="M0 0 C5.48673443 3.82748079 10.13468412 9.01539641 12.10546875 15.46875 C12.84764724 22.99656044 12.60528497 29.7104842 9.10546875 36.46875 C6.73046875 39.21875 6.73046875 39.21875 4.10546875 41.46875 C3.28046875 42.190625 2.45546875 42.9125 1.60546875 43.65625 C-5.01134024 48.45343652 -11.99395755 48.16744019 -19.89453125 47.46875 C-26.64685667 45.76448895 -30.94468875 40.98599032 -34.89453125 35.46875 C-38.74503328 28.88563363 -38.96942971 22.11312259 -37.2734375 14.78515625 C-34.56855859 6.88690982 -29.66494651 2.71649756 -22.64453125 -1.46875 C-15.00750008 -3.6325755 -7.16986729 -3.65676292 0 0 Z " fill="#040200" transform="translate(828.89453125,654.53125)"/>
<path d="M0 0 C13.86 0 27.72 0 42 0 C42 16.17 42 32.34 42 49 C17.625 47.83928571 17.625 47.83928571 6 47 C4.56207839 36.59621422 3.28455162 26.17651429 2.0534668 15.74633789 C1.93140869 14.71629639 1.80935059 13.68625488 1.68359375 12.625 C1.57587646 11.70976562 1.46815918 10.79453125 1.35717773 9.8515625 C0.94518701 6.5623953 0.46879329 3.281553 0 0 Z " fill="#060300" transform="translate(368,377)"/>
<path d="M0 0 C10.89 0 21.78 0 33 0 C32.2713424 3.64328798 31.5441482 6.4723118 30.22167969 9.859375 C29.85749939 10.7980542 29.49331909 11.7367334 29.11810303 12.70385742 C28.72334778 13.70908447 28.32859253 14.71431152 27.921875 15.75 C27.51342346 16.79969971 27.10497192 17.84939941 26.68414307 18.9309082 C25.3765949 22.28878106 24.06342862 25.64442348 22.75 29 C21.88112925 31.22771595 21.01263567 33.45557906 20.14453125 35.68359375 C18.88742791 38.9097308 17.62966521 42.13559731 16.36901855 45.36035156 C13.82372376 51.87189727 11.30919899 58.39339474 8.84863281 64.9375 C8 67 8 67 7 68 C4.69 68 2.38 68 0 68 C0 45.56 0 23.12 0 0 Z " fill="#040200" transform="translate(773,295)"/>
<path d="M0 0 C3.89398123 1.32248419 5.65313142 2.60749082 8.375 5.6875 C10.35401288 9.72164164 10.72965311 12.59570836 10 17 C8.42299677 21.17905855 6.86067171 23.70772617 3 26 C-1.07437758 27.35812586 -4.74400091 27.65365174 -9 27 C-12.86555894 24.96120309 -15.36222797 22.02803391 -17 18 C-17.63661795 13.93904758 -17.95279272 9.79564782 -15.984375 6.0859375 C-11.18789083 0.22035746 -7.17355159 -0.77385916 0 0 Z " fill="#FB7D00" transform="translate(411,664)"/>
<path d="M0 0 C3.99625051 1.33717751 6.52318017 3.30784219 8.9375 6.8125 C10.36262082 11.08786245 10.88802408 14.56671368 9.30859375 18.89453125 C7.70259138 22.08637697 6.24097461 23.82627412 3.3125 25.9375 C-0.95008874 27.30474545 -4.58149894 27.9725297 -9 27 C-12.37277904 24.94618483 -15.21990552 22.56018896 -17 19 C-17.6021891 14.40354395 -18.06807191 9.88966568 -15.73046875 5.75390625 C-10.98599473 0.20137096 -7.22575902 -0.83965449 0 0 Z " fill="#FB7D00" transform="translate(820,664)"/>
</svg>
